<mxfile host="app.diagrams.net" modified="2023-12-08T15:34:58.562Z" agent="Mozilla/5.0 (Windows NT 10.0; Win64; x64) AppleWebKit/537.36 (KHTML, like Gecko) Chrome/119.0.0.0 Safari/537.36 Edg/119.0.0.0" etag="bgAlmozSCWpm-x95D_R0" version="22.1.7" type="device">
  <diagram name="Page-1" id="hIltPxKUy8GvgKv3Yyj8">
    <mxGraphModel dx="1386" dy="785" grid="1" gridSize="10" guides="1" tooltips="1" connect="1" arrows="1" fold="1" page="1" pageScale="1" pageWidth="850" pageHeight="1100" math="0" shadow="0">
      <root>
        <mxCell id="0" />
        <mxCell id="1" parent="0" />
        <mxCell id="RTOKjq426Z_i3f-lNGMg-11" style="edgeStyle=orthogonalEdgeStyle;rounded=0;orthogonalLoop=1;jettySize=auto;html=1;exitX=0.5;exitY=0;exitDx=0;exitDy=0;entryX=0.5;entryY=0;entryDx=0;entryDy=0;curved=1;strokeWidth=3;" edge="1" parent="1" source="RTOKjq426Z_i3f-lNGMg-1" target="RTOKjq426Z_i3f-lNGMg-5">
          <mxGeometry relative="1" as="geometry">
            <Array as="points">
              <mxPoint x="130" y="20" />
              <mxPoint x="640" y="20" />
            </Array>
          </mxGeometry>
        </mxCell>
        <mxCell id="RTOKjq426Z_i3f-lNGMg-30" value="&lt;b style=&quot;border-color: var(--border-color); font-size: 23px;&quot;&gt;0.5&lt;/b&gt;" style="edgeLabel;html=1;align=center;verticalAlign=middle;resizable=0;points=[];" vertex="1" connectable="0" parent="RTOKjq426Z_i3f-lNGMg-11">
          <mxGeometry x="0.0272" y="-1" relative="1" as="geometry">
            <mxPoint as="offset" />
          </mxGeometry>
        </mxCell>
        <mxCell id="RTOKjq426Z_i3f-lNGMg-19" style="edgeStyle=orthogonalEdgeStyle;rounded=0;orthogonalLoop=1;jettySize=auto;html=1;exitX=0.5;exitY=1;exitDx=0;exitDy=0;entryX=0;entryY=0;entryDx=0;entryDy=0;curved=1;strokeWidth=3;" edge="1" parent="1" source="RTOKjq426Z_i3f-lNGMg-1" target="RTOKjq426Z_i3f-lNGMg-4">
          <mxGeometry relative="1" as="geometry">
            <Array as="points">
              <mxPoint x="130" y="482" />
            </Array>
          </mxGeometry>
        </mxCell>
        <mxCell id="RTOKjq426Z_i3f-lNGMg-39" value="&lt;b style=&quot;border-color: var(--border-color); font-size: 23px;&quot;&gt;0.5&lt;/b&gt;" style="edgeLabel;html=1;align=center;verticalAlign=middle;resizable=0;points=[];" vertex="1" connectable="0" parent="RTOKjq426Z_i3f-lNGMg-19">
          <mxGeometry x="-0.3442" y="8" relative="1" as="geometry">
            <mxPoint as="offset" />
          </mxGeometry>
        </mxCell>
        <mxCell id="RTOKjq426Z_i3f-lNGMg-1" value="&lt;b style=&quot;border-color: var(--border-color);&quot;&gt;&lt;font style=&quot;border-color: var(--border-color); font-size: 25px;&quot;&gt;2&lt;/font&gt;&lt;/b&gt;" style="ellipse;whiteSpace=wrap;html=1;aspect=fixed;strokeWidth=3;" vertex="1" parent="1">
          <mxGeometry x="90" y="140" width="80" height="80" as="geometry" />
        </mxCell>
        <mxCell id="RTOKjq426Z_i3f-lNGMg-18" style="edgeStyle=orthogonalEdgeStyle;rounded=0;orthogonalLoop=1;jettySize=auto;html=1;exitX=0;exitY=0.5;exitDx=0;exitDy=0;entryX=0.5;entryY=1;entryDx=0;entryDy=0;curved=1;strokeWidth=3;" edge="1" parent="1" source="RTOKjq426Z_i3f-lNGMg-2" target="RTOKjq426Z_i3f-lNGMg-4">
          <mxGeometry relative="1" as="geometry">
            <Array as="points">
              <mxPoint x="640" y="610" />
              <mxPoint x="270" y="610" />
            </Array>
          </mxGeometry>
        </mxCell>
        <mxCell id="RTOKjq426Z_i3f-lNGMg-36" value="&lt;b style=&quot;border-color: var(--border-color); font-size: 23px;&quot;&gt;0.4&lt;/b&gt;" style="edgeLabel;html=1;align=center;verticalAlign=middle;resizable=0;points=[];" vertex="1" connectable="0" parent="RTOKjq426Z_i3f-lNGMg-18">
          <mxGeometry x="0.1102" y="1" relative="1" as="geometry">
            <mxPoint as="offset" />
          </mxGeometry>
        </mxCell>
        <mxCell id="RTOKjq426Z_i3f-lNGMg-21" style="edgeStyle=orthogonalEdgeStyle;rounded=0;orthogonalLoop=1;jettySize=auto;html=1;exitX=0;exitY=0;exitDx=0;exitDy=0;entryX=0.5;entryY=1;entryDx=0;entryDy=0;curved=1;strokeWidth=3;" edge="1" parent="1" source="RTOKjq426Z_i3f-lNGMg-2" target="RTOKjq426Z_i3f-lNGMg-3">
          <mxGeometry relative="1" as="geometry" />
        </mxCell>
        <mxCell id="RTOKjq426Z_i3f-lNGMg-35" value="&lt;b style=&quot;border-color: var(--border-color); font-size: 23px;&quot;&gt;0.4&lt;/b&gt;" style="edgeLabel;html=1;align=center;verticalAlign=middle;resizable=0;points=[];" vertex="1" connectable="0" parent="RTOKjq426Z_i3f-lNGMg-21">
          <mxGeometry x="-0.0795" y="-42" relative="1" as="geometry">
            <mxPoint as="offset" />
          </mxGeometry>
        </mxCell>
        <mxCell id="RTOKjq426Z_i3f-lNGMg-22" style="edgeStyle=orthogonalEdgeStyle;rounded=0;orthogonalLoop=1;jettySize=auto;html=1;exitX=0.5;exitY=1;exitDx=0;exitDy=0;entryX=0;entryY=0.5;entryDx=0;entryDy=0;curved=1;strokeWidth=3;" edge="1" parent="1" source="RTOKjq426Z_i3f-lNGMg-2" target="RTOKjq426Z_i3f-lNGMg-1">
          <mxGeometry relative="1" as="geometry">
            <Array as="points">
              <mxPoint x="680" y="650" />
              <mxPoint x="40" y="650" />
              <mxPoint x="40" y="180" />
            </Array>
          </mxGeometry>
        </mxCell>
        <mxCell id="RTOKjq426Z_i3f-lNGMg-37" value="&lt;b style=&quot;border-color: var(--border-color); font-size: 23px;&quot;&gt;0.2&lt;/b&gt;" style="edgeLabel;html=1;align=center;verticalAlign=middle;resizable=0;points=[];" vertex="1" connectable="0" parent="RTOKjq426Z_i3f-lNGMg-22">
          <mxGeometry x="0.2741" y="-43" relative="1" as="geometry">
            <mxPoint as="offset" />
          </mxGeometry>
        </mxCell>
        <mxCell id="RTOKjq426Z_i3f-lNGMg-2" value="&lt;b&gt;&lt;font style=&quot;font-size: 25px;&quot;&gt;4&lt;/font&gt;&lt;/b&gt;" style="ellipse;whiteSpace=wrap;html=1;aspect=fixed;strokeWidth=3;" vertex="1" parent="1">
          <mxGeometry x="640" y="550" width="80" height="80" as="geometry" />
        </mxCell>
        <mxCell id="RTOKjq426Z_i3f-lNGMg-12" style="edgeStyle=orthogonalEdgeStyle;rounded=0;orthogonalLoop=1;jettySize=auto;html=1;exitX=0;exitY=0;exitDx=0;exitDy=0;entryX=1;entryY=0;entryDx=0;entryDy=0;curved=1;strokeWidth=3;" edge="1" parent="1" source="RTOKjq426Z_i3f-lNGMg-3" target="RTOKjq426Z_i3f-lNGMg-1">
          <mxGeometry relative="1" as="geometry">
            <Array as="points">
              <mxPoint x="397" y="152" />
            </Array>
          </mxGeometry>
        </mxCell>
        <mxCell id="RTOKjq426Z_i3f-lNGMg-29" value="&lt;font style=&quot;font-size: 23px;&quot;&gt;&lt;b&gt;0.7&lt;/b&gt;&lt;/font&gt;" style="edgeLabel;html=1;align=center;verticalAlign=middle;resizable=0;points=[];" vertex="1" connectable="0" parent="RTOKjq426Z_i3f-lNGMg-12">
          <mxGeometry x="0.3565" y="22" relative="1" as="geometry">
            <mxPoint as="offset" />
          </mxGeometry>
        </mxCell>
        <mxCell id="RTOKjq426Z_i3f-lNGMg-13" style="edgeStyle=orthogonalEdgeStyle;rounded=0;orthogonalLoop=1;jettySize=auto;html=1;exitX=0.5;exitY=0;exitDx=0;exitDy=0;entryX=0;entryY=0.5;entryDx=0;entryDy=0;curved=1;strokeWidth=3;" edge="1" parent="1" source="RTOKjq426Z_i3f-lNGMg-3" target="RTOKjq426Z_i3f-lNGMg-5">
          <mxGeometry relative="1" as="geometry" />
        </mxCell>
        <mxCell id="RTOKjq426Z_i3f-lNGMg-34" value="&lt;b style=&quot;border-color: var(--border-color); font-size: 23px;&quot;&gt;0.1&lt;/b&gt;" style="edgeLabel;html=1;align=center;verticalAlign=middle;resizable=0;points=[];" vertex="1" connectable="0" parent="RTOKjq426Z_i3f-lNGMg-13">
          <mxGeometry x="0.2924" y="-41" relative="1" as="geometry">
            <mxPoint as="offset" />
          </mxGeometry>
        </mxCell>
        <mxCell id="RTOKjq426Z_i3f-lNGMg-14" style="edgeStyle=orthogonalEdgeStyle;rounded=0;orthogonalLoop=1;jettySize=auto;html=1;exitX=1;exitY=0;exitDx=0;exitDy=0;curved=1;entryX=0.938;entryY=0.25;entryDx=0;entryDy=0;entryPerimeter=0;strokeWidth=3;" edge="1" parent="1" source="RTOKjq426Z_i3f-lNGMg-3" target="RTOKjq426Z_i3f-lNGMg-3">
          <mxGeometry relative="1" as="geometry">
            <mxPoint x="480" y="330" as="targetPoint" />
            <Array as="points">
              <mxPoint x="453" y="280" />
              <mxPoint x="550" y="280" />
              <mxPoint x="550" y="340" />
            </Array>
          </mxGeometry>
        </mxCell>
        <mxCell id="RTOKjq426Z_i3f-lNGMg-33" value="&lt;b style=&quot;border-color: var(--border-color); font-size: 23px;&quot;&gt;0.2&lt;/b&gt;" style="edgeLabel;html=1;align=center;verticalAlign=middle;resizable=0;points=[];" vertex="1" connectable="0" parent="RTOKjq426Z_i3f-lNGMg-14">
          <mxGeometry x="-0.3506" y="-2" relative="1" as="geometry">
            <mxPoint as="offset" />
          </mxGeometry>
        </mxCell>
        <mxCell id="RTOKjq426Z_i3f-lNGMg-3" value="&lt;b style=&quot;border-color: var(--border-color);&quot;&gt;&lt;font style=&quot;border-color: var(--border-color); font-size: 25px;&quot;&gt;1&lt;/font&gt;&lt;/b&gt;" style="ellipse;whiteSpace=wrap;html=1;aspect=fixed;strokeWidth=3;" vertex="1" parent="1">
          <mxGeometry x="385" y="320" width="80" height="80" as="geometry" />
        </mxCell>
        <mxCell id="RTOKjq426Z_i3f-lNGMg-20" style="edgeStyle=orthogonalEdgeStyle;rounded=0;orthogonalLoop=1;jettySize=auto;html=1;exitX=0.5;exitY=0;exitDx=0;exitDy=0;entryX=0;entryY=0.5;entryDx=0;entryDy=0;curved=1;strokeWidth=3;" edge="1" parent="1" source="RTOKjq426Z_i3f-lNGMg-4" target="RTOKjq426Z_i3f-lNGMg-3">
          <mxGeometry relative="1" as="geometry" />
        </mxCell>
        <mxCell id="RTOKjq426Z_i3f-lNGMg-40" value="&lt;b style=&quot;border-color: var(--border-color); font-size: 23px;&quot;&gt;0.7&lt;/b&gt;" style="edgeLabel;html=1;align=center;verticalAlign=middle;resizable=0;points=[];" vertex="1" connectable="0" parent="RTOKjq426Z_i3f-lNGMg-20">
          <mxGeometry x="-0.3381" y="-18" relative="1" as="geometry">
            <mxPoint as="offset" />
          </mxGeometry>
        </mxCell>
        <mxCell id="RTOKjq426Z_i3f-lNGMg-4" value="&lt;b style=&quot;border-color: var(--border-color);&quot;&gt;&lt;font style=&quot;border-color: var(--border-color); font-size: 25px;&quot;&gt;5&lt;/font&gt;&lt;/b&gt;" style="ellipse;whiteSpace=wrap;html=1;aspect=fixed;strokeWidth=3;" vertex="1" parent="1">
          <mxGeometry x="230" y="470" width="80" height="80" as="geometry" />
        </mxCell>
        <mxCell id="RTOKjq426Z_i3f-lNGMg-6" style="edgeStyle=orthogonalEdgeStyle;rounded=0;orthogonalLoop=1;jettySize=auto;html=1;exitX=1;exitY=0.5;exitDx=0;exitDy=0;curved=1;strokeWidth=3;" edge="1" parent="1" source="RTOKjq426Z_i3f-lNGMg-5" target="RTOKjq426Z_i3f-lNGMg-2">
          <mxGeometry relative="1" as="geometry">
            <Array as="points">
              <mxPoint x="790" y="130" />
              <mxPoint x="790" y="590" />
            </Array>
          </mxGeometry>
        </mxCell>
        <mxCell id="RTOKjq426Z_i3f-lNGMg-32" value="&lt;b style=&quot;border-color: var(--border-color); font-size: 23px;&quot;&gt;0.8&lt;/b&gt;" style="edgeLabel;html=1;align=center;verticalAlign=middle;resizable=0;points=[];" vertex="1" connectable="0" parent="RTOKjq426Z_i3f-lNGMg-6">
          <mxGeometry x="-0.0082" relative="1" as="geometry">
            <mxPoint as="offset" />
          </mxGeometry>
        </mxCell>
        <mxCell id="RTOKjq426Z_i3f-lNGMg-5" value="&lt;b style=&quot;border-color: var(--border-color);&quot;&gt;&lt;font style=&quot;border-color: var(--border-color); font-size: 25px;&quot;&gt;3&lt;/font&gt;&lt;/b&gt;" style="ellipse;whiteSpace=wrap;html=1;aspect=fixed;strokeWidth=3;" vertex="1" parent="1">
          <mxGeometry x="600" y="90" width="80" height="80" as="geometry" />
        </mxCell>
        <mxCell id="RTOKjq426Z_i3f-lNGMg-15" value="" style="edgeStyle=orthogonalEdgeStyle;rounded=0;orthogonalLoop=1;jettySize=auto;html=1;exitX=0.804;exitY=0.098;exitDx=0;exitDy=0;curved=1;entryX=0.938;entryY=0.25;entryDx=0;entryDy=0;entryPerimeter=0;exitPerimeter=0;strokeWidth=3;" edge="1" parent="1" source="RTOKjq426Z_i3f-lNGMg-5">
          <mxGeometry relative="1" as="geometry">
            <mxPoint x="677" y="110" as="targetPoint" />
            <mxPoint x="670" y="102" as="sourcePoint" />
            <Array as="points">
              <mxPoint x="664" y="60" />
              <mxPoint x="767" y="60" />
              <mxPoint x="767" y="110" />
            </Array>
          </mxGeometry>
        </mxCell>
        <mxCell id="RTOKjq426Z_i3f-lNGMg-31" value="&lt;b style=&quot;border-color: var(--border-color); font-size: 23px;&quot;&gt;0.2&lt;/b&gt;" style="edgeLabel;html=1;align=center;verticalAlign=middle;resizable=0;points=[];" vertex="1" connectable="0" parent="RTOKjq426Z_i3f-lNGMg-15">
          <mxGeometry x="-0.3737" y="2" relative="1" as="geometry">
            <mxPoint as="offset" />
          </mxGeometry>
        </mxCell>
        <mxCell id="RTOKjq426Z_i3f-lNGMg-16" style="edgeStyle=orthogonalEdgeStyle;rounded=0;orthogonalLoop=1;jettySize=auto;html=1;curved=1;exitX=0.815;exitY=0.115;exitDx=0;exitDy=0;exitPerimeter=0;strokeWidth=3;" edge="1" parent="1" source="RTOKjq426Z_i3f-lNGMg-4" target="RTOKjq426Z_i3f-lNGMg-4">
          <mxGeometry relative="1" as="geometry">
            <mxPoint x="320" y="500" as="targetPoint" />
            <mxPoint x="300" y="480" as="sourcePoint" />
            <Array as="points">
              <mxPoint x="295" y="450" />
              <mxPoint x="417" y="450" />
              <mxPoint x="417" y="500" />
            </Array>
          </mxGeometry>
        </mxCell>
        <mxCell id="RTOKjq426Z_i3f-lNGMg-38" value="&lt;b style=&quot;border-color: var(--border-color); font-size: 23px;&quot;&gt;0.3&lt;/b&gt;" style="edgeLabel;html=1;align=center;verticalAlign=middle;resizable=0;points=[];" vertex="1" connectable="0" parent="RTOKjq426Z_i3f-lNGMg-16">
          <mxGeometry x="-0.4333" y="2" relative="1" as="geometry">
            <mxPoint as="offset" />
          </mxGeometry>
        </mxCell>
        <mxCell id="RTOKjq426Z_i3f-lNGMg-23" value="&lt;b style=&quot;border-color: var(--border-color); color: rgb(0, 0, 0); font-family: Helvetica; font-size: 12px; font-style: normal; font-variant-ligatures: normal; font-variant-caps: normal; letter-spacing: normal; orphans: 2; text-align: center; text-indent: 0px; text-transform: none; widows: 2; word-spacing: 0px; -webkit-text-stroke-width: 0px; background-color: rgb(251, 251, 251); text-decoration-thickness: initial; text-decoration-style: initial; text-decoration-color: initial;&quot;&gt;&lt;font style=&quot;border-color: var(--border-color); font-size: 25px;&quot;&gt;A&lt;/font&gt;&lt;/b&gt;" style="text;whiteSpace=wrap;html=1;" vertex="1" parent="1">
          <mxGeometry x="465" y="360" width="50" height="50" as="geometry" />
        </mxCell>
        <mxCell id="RTOKjq426Z_i3f-lNGMg-25" value="&lt;b style=&quot;border-color: var(--border-color); color: rgb(0, 0, 0); font-family: Helvetica; font-size: 12px; font-style: normal; font-variant-ligatures: normal; font-variant-caps: normal; letter-spacing: normal; orphans: 2; text-align: center; text-indent: 0px; text-transform: none; widows: 2; word-spacing: 0px; -webkit-text-stroke-width: 0px; background-color: rgb(251, 251, 251); text-decoration-thickness: initial; text-decoration-style: initial; text-decoration-color: initial;&quot;&gt;&lt;font style=&quot;border-color: var(--border-color); font-size: 25px;&quot;&gt;A&lt;/font&gt;&lt;/b&gt;" style="text;whiteSpace=wrap;html=1;" vertex="1" parent="1">
          <mxGeometry x="160" y="200" width="50" height="50" as="geometry" />
        </mxCell>
        <mxCell id="RTOKjq426Z_i3f-lNGMg-26" value="&lt;b style=&quot;border-color: var(--border-color); color: rgb(0, 0, 0); font-family: Helvetica; font-size: 12px; font-style: normal; font-variant-ligatures: normal; font-variant-caps: normal; letter-spacing: normal; orphans: 2; text-align: center; text-indent: 0px; text-transform: none; widows: 2; word-spacing: 0px; -webkit-text-stroke-width: 0px; background-color: rgb(251, 251, 251); text-decoration-thickness: initial; text-decoration-style: initial; text-decoration-color: initial;&quot;&gt;&lt;font style=&quot;border-color: var(--border-color); font-size: 25px;&quot;&gt;G&lt;/font&gt;&lt;/b&gt;" style="text;whiteSpace=wrap;html=1;" vertex="1" parent="1">
          <mxGeometry x="655" y="155" width="50" height="50" as="geometry" />
        </mxCell>
        <mxCell id="RTOKjq426Z_i3f-lNGMg-27" value="&lt;div style=&quot;text-align: center;&quot;&gt;&lt;span style=&quot;background-color: initial; font-size: 25px;&quot;&gt;&lt;b&gt;B&lt;/b&gt;&lt;/span&gt;&lt;/div&gt;" style="text;whiteSpace=wrap;html=1;" vertex="1" parent="1">
          <mxGeometry x="705" y="610" width="50" height="50" as="geometry" />
        </mxCell>
        <mxCell id="RTOKjq426Z_i3f-lNGMg-28" value="&lt;b style=&quot;border-color: var(--border-color); color: rgb(0, 0, 0); font-family: Helvetica; font-size: 12px; font-style: normal; font-variant-ligatures: normal; font-variant-caps: normal; letter-spacing: normal; orphans: 2; text-align: center; text-indent: 0px; text-transform: none; widows: 2; word-spacing: 0px; -webkit-text-stroke-width: 0px; background-color: rgb(251, 251, 251); text-decoration-thickness: initial; text-decoration-style: initial; text-decoration-color: initial;&quot;&gt;&lt;font style=&quot;border-color: var(--border-color); font-size: 25px;&quot;&gt;T&lt;/font&gt;&lt;/b&gt;" style="text;whiteSpace=wrap;html=1;" vertex="1" parent="1">
          <mxGeometry x="300" y="525" width="50" height="50" as="geometry" />
        </mxCell>
      </root>
    </mxGraphModel>
  </diagram>
</mxfile>
